<?xml version="1.0" encoding="iso-8859-1"?>
<!-- Generator: Adobe Illustrator 22.1.0, SVG Export Plug-In . SVG Version: 6.00 Build 0)  -->
<svg version="1.1" id="Layer_1" xmlns="http://www.w3.org/2000/svg" xmlns:xlink="http://www.w3.org/1999/xlink" x="0px" y="0px"
	 viewBox="0 0 100 100" style="enable-background:new 0 0 100 100;" xml:space="preserve">
<g>
	<path style="fill:#B3B2C3;" d="M77.5,68.5v5c2.209,0,4,1.791,4,4s-1.791,4-4,4h-12v-7h-5v7h-30v-3.757
		c0-0.796,0.316-1.559,0.879-2.121L33.5,73.5h-11l2.121,2.121c0.563,0.563,0.879,1.326,0.879,2.121V81.5h-12v5h64
		c4.971,0,9-4.029,9-9S82.471,68.5,77.5,68.5z"/>
	<path style="fill:#1F212B;" d="M77.5,87h-64c-0.276,0-0.5-0.224-0.5-0.5v-5c0-0.276,0.224-0.5,0.5-0.5H25v-3.258
		c0-0.658-0.267-1.303-0.732-1.768l-2.121-2.121c-0.143-0.143-0.186-0.358-0.108-0.545C22.115,73.122,22.298,73,22.5,73h11
		c0.202,0,0.385,0.122,0.462,0.309c0.078,0.187,0.035,0.402-0.108,0.545l-2.121,2.121C31.267,76.439,31,77.084,31,77.742V81h29v-6.5
		c0-0.276,0.224-0.5,0.5-0.5h5c0.276,0,0.5,0.224,0.5,0.5V81h11.5c1.93,0,3.5-1.57,3.5-3.5S79.43,74,77.5,74
		c-0.276,0-0.5-0.224-0.5-0.5v-5c0-0.276,0.224-0.5,0.5-0.5c5.238,0,9.5,4.262,9.5,9.5S82.738,87,77.5,87z M14,86h63.5
		c4.687,0,8.5-3.813,8.5-8.5c0-4.519-3.545-8.226-8-8.485v4.013c2.247,0.25,4,2.16,4,4.473C82,79.982,79.981,82,77.5,82h-12
		c-0.276,0-0.5-0.223-0.5-0.499V75h-4v6.5c0,0.276-0.224,0.5-0.5,0.5h-30c-0.276,0-0.5-0.224-0.5-0.5v-3.758
		c0-0.922,0.374-1.823,1.025-2.475L32.293,74h-8.586l1.268,1.268C25.626,75.919,26,76.82,26,77.742V81.5c0,0.276-0.224,0.5-0.5,0.5
		H14V86z"/>
</g>
<g>
	<path style="fill:#B3B2C3;" d="M52.5,29.5c0,2.211-1.533,4-3.429,4h-5.143c-1.895,0-3.429-1.789-3.429-4V19.279
		c0-3.192,2.388-5.779,5.333-5.779H49.5c1.657,0,3,1.343,3,3V29.5z"/>
	<path style="fill:#1F212B;" d="M49.071,34h-5.143C41.762,34,40,31.981,40,29.5V19.279C40,15.816,42.617,13,45.833,13H49.5
		c1.93,0,3.5,1.57,3.5,3.5v13C53,31.981,51.237,34,49.071,34z M45.833,14C43.168,14,41,16.368,41,19.279V29.5
		c0,1.93,1.314,3.5,2.929,3.5h5.143C50.686,33,52,31.43,52,29.5v-13c0-1.379-1.122-2.5-2.5-2.5H45.833z"/>
</g>
<g>
	<path style="fill:#FEFDEF;" d="M83.999,68.181c-0.002-3.773-0.169-9.586-9.714-11.285C51.5,52.84,52,44.348,52,38
		c0-3.703,0-19,0-19l-28.264,3.769C22.742,22.901,22,23.749,22,24.751V38c0,5.642-3,10-3,22c0,2.398,1.015,9.647,1.375,12.144
		C20.446,72.636,20.868,73,21.365,73H35c0.552,0,1-0.448,1-1v-5c3.533,0.529,13.5,7,27,7c9.886,0,17.737-1.358,20.195-1.836
		C83.664,72.073,84,71.661,84,71.183L83.999,68.181L83.999,68.181z"/>
	<path style="fill:#6474A6;" d="M21.365,73H35c0.552,0,1-0.448,1-1v-5c3.533,0.529,13.5,7,27,7c9.886,0,17.737-1.358,20.195-1.836
		C83.664,72.073,84,71.661,84,71.183v-3.002h-0.001c0-0.269-0.003-0.55-0.008-0.838l-1.656,0.404C80.223,68.158,72.582,69.5,63,69.5
		c-8.676,0-15.868-3.003-20.627-4.99c-2.396-1.001-4.127-1.724-5.706-1.96c-0.166-0.024-0.576-0.059-1.167-0.058
		C31.763,62.499,20.609,62.5,19.159,62.5c0.3,3.17,0.944,7.76,1.216,9.644C20.446,72.636,20.868,73,21.365,73z"/>
	<path style="fill:#1F212B;" d="M63,75c-9.777,0-17.582-3.259-22.747-5.415c-1.283-0.536-2.389-0.998-3.253-1.29V72
		c0,1.103-0.897,2-2,2H21.365c-0.987,0-1.838-0.736-1.979-1.712C18.969,69.397,18,62.414,18,60c0-7.236,1.077-11.754,1.942-15.384
		C20.533,42.136,21,40.178,21,38V24.751c0-1.497,1.119-2.775,2.604-2.974l28.265-3.769c0.286-0.038,0.574,0.049,0.791,0.239
		C52.876,18.438,53,18.712,53,19v19.402c-0.011,6.097-0.022,13.685,21.46,17.509c10.533,1.875,10.537,8.637,10.539,12.269
		c0,0.001,0,0.001,0,0.001L85,71.184c0,0.956-0.679,1.781-1.614,1.962C81.151,73.581,73.074,75,63,75z M36,66
		c0.049,0,0.099,0.004,0.148,0.011c1.149,0.173,2.712,0.825,4.876,1.729C46.041,69.834,53.623,73,63,73
		c9.896,0,17.813-1.392,20.004-1.817l-0.005-3.001c-0.002-3.473-0.005-8.72-8.889-10.302c-21.232-3.779-22.967-11.568-23.1-17.836
		c-0.012-0.562-0.011-1.112-0.01-1.646V20.143L23.868,23.76C23.374,23.826,23,24.252,23,24.751V38c0,2.412-0.516,4.575-1.112,7.08
		C21.046,48.608,20,52.999,20,60c0,2.35,1.044,9.78,1.365,12.002L35,72v-5c0-0.291,0.127-0.567,0.347-0.758
		C35.53,66.085,35.762,66,36,66z"/>
	<path style="fill:#1F212B;" d="M63,70c-8.776,0-16.024-3.026-20.82-5.029c-2.361-0.986-4.067-1.699-5.587-1.927
		c-0.137-0.021-0.516-0.056-1.091-0.052C31.501,63,19,63,19,63v-1c0,0,12.5,0.008,16.499,0c0.604,0.009,1.026,0.023,1.241,0.055
		c1.644,0.246,3.397,0.979,5.826,1.994C47.288,66.021,54.424,69,63,69c9.536,0,17.138-1.335,19.24-1.744l1.642-0.4l0.236,0.971
		l-1.664,0.406C80.307,68.651,72.626,70,63,70z"/>
	<path style="fill:#1F212B;" d="M35.5,63c-0.276,0-0.5-0.224-0.5-0.5c0-3.11-0.938-6.124-2.714-8.718
		c-0.156-0.228-0.098-0.539,0.13-0.694c0.229-0.157,0.54-0.098,0.695,0.13C35.001,55.978,36,59.188,36,62.5
		C36,62.776,35.776,63,35.5,63z"/>
	<path style="fill:#1F212B;" d="M31.083,52c-0.132,0-0.264-0.052-0.363-0.155c-0.544-0.574-1.046-1.043-1.534-1.435
		c-0.215-0.173-0.25-0.487-0.077-0.703c0.174-0.215,0.489-0.248,0.703-0.076c0.523,0.42,1.057,0.918,1.633,1.524
		c0.19,0.2,0.182,0.518-0.018,0.707C31.331,51.954,31.207,52,31.083,52z"/>
	<path style="fill:#1F212B;" d="M25.5,48.174c-0.063,0-0.126-0.012-0.188-0.036c-1.677-0.68-3.47-1.055-5.328-1.113
		c-0.276-0.009-0.493-0.24-0.484-0.516c0.008-0.275,0.243-0.507,0.515-0.484c1.977,0.063,3.885,0.462,5.672,1.186
		c0.256,0.104,0.379,0.396,0.275,0.651C25.885,48.056,25.697,48.174,25.5,48.174z"/>
	<path style="fill:#1F212B;" d="M52,29h-5.5c-0.276,0-0.5-0.224-0.5-0.5s0.224-0.5,0.5-0.5H52c0.276,0,0.5,0.224,0.5,0.5
		S52.276,29,52,29z"/>
	<path style="fill:#1F212B;" d="M52,36h-5.5c-0.276,0-0.5-0.224-0.5-0.5s0.224-0.5,0.5-0.5H52c0.276,0,0.5,0.224,0.5,0.5
		S52.276,36,52,36z"/>
	<path style="fill:#1F212B;" d="M46.5,43c-0.237,0-0.448-0.169-0.491-0.41c-0.05-0.272,0.13-0.532,0.402-0.582l5.5-1
		c0.268-0.043,0.532,0.13,0.582,0.402c0.049,0.272-0.131,0.532-0.402,0.582l-5.5,1C46.559,42.997,46.529,43,46.5,43z"/>
	<path style="fill:#1F212B;" d="M48.5,50c-0.158,0-0.313-0.074-0.41-0.213c-0.158-0.227-0.104-0.538,0.123-0.696l5-3.5
		c0.227-0.158,0.538-0.104,0.696,0.122c0.159,0.227,0.104,0.538-0.122,0.696l-5,3.5C48.7,49.971,48.6,50,48.5,50z"/>
	<path style="fill:#1F212B;" d="M52.5,55c-0.118,0-0.237-0.042-0.332-0.126c-0.206-0.184-0.226-0.5-0.042-0.706l4-4.5
		c0.183-0.208,0.5-0.224,0.706-0.042c0.206,0.184,0.226,0.5,0.042,0.706l-4,4.5C52.775,54.943,52.638,55,52.5,55z"/>
	<path style="fill:#1F212B;" d="M58.5,59c-0.069,0-0.14-0.015-0.207-0.045c-0.251-0.114-0.362-0.41-0.248-0.662l2.5-5.5
		c0.115-0.252,0.412-0.359,0.662-0.248c0.251,0.114,0.362,0.41,0.248,0.662l-2.5,5.5C58.871,58.892,58.689,59,58.5,59z"/>
	<path style="fill:#1F212B;" d="M65.501,61c-0.033,0-0.066-0.003-0.099-0.01c-0.271-0.054-0.447-0.317-0.393-0.588l1-5
		c0.055-0.272,0.328-0.446,0.588-0.393c0.271,0.054,0.447,0.317,0.393,0.588l-1,5C65.942,60.836,65.734,61,65.501,61z"/>
</g>
</svg>
